<?xml version="1.0" encoding="utf-8"?>
<!-- Generator: Adobe Illustrator 24.1.0, SVG Export Plug-In . SVG Version: 6.00 Build 0)  -->
<svg version="1.1" id="Layer_1" xmlns="http://www.w3.org/2000/svg" xmlns:xlink="http://www.w3.org/1999/xlink" x="0px" y="0px"
	 viewBox="0 0 60 51" style="enable-background:new 0 0 60 51;" xml:space="preserve">
<style type="text/css">
	.st0{fill:#FFFFFF;}
</style>
<path class="st0" d="M0,16.9h1.7c0.2,0,0.4,0,0.5-0.1c0.1-0.1,0.1-0.2,0.1-0.5V1.4c0-0.2,0-0.4-0.1-0.5C2.1,0.8,2,0.8,1.7,0.8H0V0
	h9.2c1.3,0,2.6,0.4,3.8,1.1c1.1,0.7,2,1.8,2.7,3.1c0.7,1.3,1,2.8,1,4.5s-0.3,3.2-1,4.6c-0.7,1.4-1.6,2.4-2.7,3.2
	c-1.1,0.8-2.4,1.2-3.8,1.2H0V16.9z M8.8,16.9c1.1,0,1.9-0.4,2.6-1.1c0.7-0.7,1.1-1.8,1.1-3.2V5.1c0-1.4-0.4-2.5-1.1-3.2
	c-0.7-0.7-1.6-1.1-2.6-1.1H6.6c-0.2,0-0.4,0-0.5,0.1C6,1,6,1.2,6,1.4v14.9c0,0.2,0,0.4,0.1,0.5c0.1,0.1,0.2,0.1,0.5,0.1L8.8,16.9z"
	/>
<path class="st0" d="M20.4,17.2c-0.8-0.5-1.4-1.3-1.9-2.2c-0.5-0.9-0.7-2-0.7-3.2c0-1.2,0.2-2.2,0.7-3.2s1.1-1.7,1.9-2.2
	s1.6-0.8,2.5-0.8c0.9,0,1.7,0.3,2.5,0.8c0.8,0.5,1.4,1.3,1.9,2.2s0.7,2,0.7,3.2c0,1.2-0.2,2.2-0.7,3.2c-0.5,0.9-1.1,1.7-1.9,2.2
	c-0.8,0.5-1.6,0.8-2.5,0.8C22,18,21.1,17.7,20.4,17.2z M24.3,16c0.3-0.9,0.4-2.3,0.4-4.3c0-2-0.1-3.4-0.4-4.3
	c-0.3-0.9-0.8-1.3-1.5-1.3c-0.7,0-1.2,0.4-1.5,1.3C21.1,8.4,21,9.8,21,11.8c0,2,0.1,3.4,0.4,4.3c0.3,0.9,0.8,1.3,1.5,1.3
	C23.6,17.4,24.1,16.9,24.3,16L24.3,16z"/>
<path class="st0" d="M31.5,17.1c-0.8-0.6-1.4-1.3-1.9-2.2c-0.4-0.9-0.7-2-0.7-3.1c0-1.1,0.2-2.2,0.7-3.1c0.4-0.9,1.1-1.7,1.9-2.2
	c0.8-0.6,1.7-0.8,2.7-0.8c0.8,0,1.5,0.2,2,0.5c0.5,0.3,0.9,0.7,1.2,1.3c0.3,0.5,0.4,1,0.4,1.6c0,0.6-0.2,1.1-0.5,1.6
	c-0.4,0.4-0.8,0.7-1.3,0.7c-0.4,0-0.7-0.1-0.9-0.3c-0.2-0.2-0.4-0.5-0.4-0.9c0-0.4,0.3-0.9,0.8-1.3c0.4-0.3,0.6-0.7,0.6-1
	c0-0.4-0.1-0.7-0.4-1c-0.3-0.3-0.7-0.4-1.2-0.4c-0.8,0-1.3,0.5-1.7,1.5s-0.5,2.4-0.5,4.1c0,0.9,0,1.6,0,2c0,0.5,0.1,0.9,0.2,1.4
	c0.1,0.6,0.4,1.1,0.9,1.5c0.4,0.4,0.9,0.6,1.5,0.5c0.8,0,1.5-0.4,2-1.1c0.5-0.7,0.8-1.5,0.9-2.5h0.6c-0.1,1.1-0.5,2.1-1.1,3
	c-0.6,0.9-1.6,1.3-2.9,1.3C33.2,18,32.3,17.7,31.5,17.1z"/>
<path class="st0" d="M41.8,17.1c-0.8-0.6-1.4-1.3-1.9-2.2c-0.4-0.9-0.7-2-0.7-3.1c0-1.2,0.2-2.2,0.7-3.2c0.4-0.9,1.1-1.7,1.8-2.2
	c0.7-0.5,1.6-0.8,2.5-0.8c1,0,1.9,0.4,2.6,1.1c0.7,0.7,1.2,1.7,1.4,2.8c0.1,0.5,0.2,1.4,0.2,2.5h-6.1c0,0.8,0,1.4,0,1.9
	c0,0.4,0.1,0.9,0.2,1.3c0.1,0.6,0.4,1.1,0.9,1.5c0.4,0.4,0.9,0.6,1.5,0.5c0.8,0,1.5-0.4,2-1.1c0.5-0.7,0.8-1.5,0.9-2.5h0.6
	c-0.1,1.1-0.5,2.1-1.1,3c-0.6,0.9-1.6,1.3-2.9,1.3C43.5,18,42.6,17.7,41.8,17.1z M45.6,11.3c0-1.7-0.1-3-0.3-3.9
	C45,6.6,44.6,6.2,44,6.2c-0.6,0-1,0.4-1.3,1.3c-0.2,0.8-0.3,2.1-0.3,3.9H45.6z"/>
<path class="st0" d="M3.3,40.5c-1.1-0.8-1.9-2-2.4-3.4c-0.6-1.4-0.8-3-0.8-4.6c0-1.7,0.3-3.2,0.9-4.6c0.6-1.4,1.5-2.6,2.6-3.4
	c1.1-0.8,2.4-1.3,3.8-1.3c0.7,0,1.3,0.1,1.8,0.3c0.6,0.2,1.1,0.5,1.7,0.9c0.4,0.2,0.7,0.4,0.8,0.4c0.2,0,0.4-0.2,0.5-0.5l0.4-0.9
	h0.8v7.1h-0.8c-0.6-2.1-1.3-3.7-2.2-4.8c-0.9-1.1-2-1.7-3.2-1.7c-1,0-1.8,0.4-2.3,1.1c-0.6,0.7-0.8,2-0.8,3.7v7.4
	c0,3.2,0.9,4.8,2.7,4.8c0.9,0,1.6-0.4,2.1-1.1c0.5-0.7,0.8-1.6,0.8-2.6v-3.4c0-0.2,0-0.4-0.1-0.5c-0.1-0.1-0.2-0.1-0.5-0.1H7.2v-0.8
	h8.2v0.8h-1.2c-0.2,0-0.4,0-0.5,0.1c-0.1,0.1-0.1,0.2-0.1,0.5v7.7h-0.8l-0.6-2.3c0-0.2-0.1-0.3-0.2-0.4c0-0.1-0.1-0.1-0.2-0.1
	c-0.1,0-0.1,0-0.2,0c-0.3,0-0.6,0.2-0.8,0.5c-0.4,0.7-1,1.2-1.6,1.7c-0.6,0.5-1.4,0.8-2.2,0.8C5.6,41.7,4.4,41.3,3.3,40.5z"/>
<path class="st0" d="M18.6,40.8c-0.8-0.6-1.4-1.3-1.9-2.2c-0.4-0.9-0.7-2-0.7-3.1c0-1.2,0.2-2.2,0.7-3.2c0.4-0.9,1.1-1.7,1.8-2.2
	c0.7-0.5,1.6-0.8,2.5-0.8c1,0,1.9,0.4,2.6,1.1c0.7,0.7,1.2,1.7,1.4,2.8c0.1,0.5,0.2,1.4,0.2,2.5h-6.1c0,0.8,0,1.4,0,1.9
	c0,0.4,0.1,0.9,0.2,1.3c0.1,0.6,0.4,1.1,0.9,1.5c0.4,0.4,0.9,0.6,1.5,0.5c0.8,0,1.5-0.4,2-1.1c0.5-0.7,0.8-1.5,0.9-2.5h0.6
	c-0.1,1.1-0.5,2.1-1.1,3c-0.6,0.9-1.6,1.3-2.9,1.3C20.3,41.6,19.4,41.3,18.6,40.8z M22.4,34.9c0-1.7-0.1-3-0.3-3.9
	c-0.2-0.8-0.6-1.3-1.3-1.3c-0.6,0-1,0.4-1.3,1.3c-0.2,0.8-0.3,2.1-0.3,3.9H22.4z"/>
<path class="st0" d="M25.9,40.7h1.4c0.1,0,0.3,0,0.3-0.1c0.1-0.1,0.1-0.2,0.1-0.3V24.6c0-0.1,0-0.3-0.1-0.3
	c-0.1-0.1-0.2-0.1-0.3-0.1h-1.4v-0.6h4.7v16.7c0,0.1,0,0.3,0.1,0.3c0.1,0.1,0.2,0.1,0.3,0.1h1.4v0.6h-6.4V40.7z"/>
<path class="st0" d="M35.3,40.8c-0.8-0.6-1.4-1.3-1.9-2.2c-0.4-0.9-0.7-2-0.7-3.1c0-1.2,0.2-2.2,0.7-3.2c0.4-0.9,1.1-1.7,1.8-2.2
	c0.7-0.5,1.6-0.8,2.5-0.8c1,0,1.9,0.4,2.6,1.1s1.2,1.7,1.4,2.8c0.1,0.5,0.2,1.4,0.2,2.5h-6.1c0,0.8,0,1.4,0,1.9
	c0,0.4,0.1,0.9,0.2,1.3c0.1,0.6,0.4,1.1,0.9,1.5c0.4,0.4,0.9,0.6,1.5,0.5c0.8,0,1.5-0.4,2-1.1c0.5-0.7,0.8-1.5,0.9-2.5H42
	c-0.1,1.1-0.5,2.1-1.1,3c-0.6,0.9-1.6,1.3-2.9,1.3C37,41.6,36.1,41.3,35.3,40.8z M39.1,34.9c0-1.7-0.1-3-0.3-3.9
	c-0.2-0.8-0.6-1.3-1.3-1.3c-0.6,0-1,0.4-1.3,1.3c-0.2,0.8-0.3,2.1-0.3,3.9H39.1z"/>
<path class="st0" d="M42.9,40.7h0.9c0.1,0,0.3,0,0.3-0.1c0.1-0.1,0.1-0.2,0.1-0.3v-9.8c0-0.1,0-0.3-0.1-0.3
	c-0.1-0.1-0.2-0.1-0.3-0.1h-0.9v-0.6h4.2v10.8c0,0.1,0,0.3,0.1,0.3c0.1,0.1,0.2,0.1,0.3,0.1h0.9v0.6h-5.6L42.9,40.7z M44.3,26.5
	c-0.2-0.2-0.3-0.4-0.4-0.6c-0.1-0.2-0.1-0.5-0.1-0.7c0-0.5,0.2-1,0.5-1.3c0.2-0.2,0.4-0.3,0.6-0.4c0.2-0.1,0.5-0.1,0.7-0.1
	c0.5,0,1,0.2,1.3,0.5c0.3,0.3,0.5,0.8,0.5,1.3c0,0.2,0,0.5-0.1,0.7s-0.2,0.4-0.4,0.6c-0.3,0.4-0.8,0.5-1.3,0.5c-0.2,0-0.5,0-0.7-0.1
	C44.6,26.8,44.4,26.6,44.3,26.5L44.3,26.5z"/>
<path class="st0" d="M50,40.9c-0.6-0.4-1-1.2-1-2.3c0-1.1,0.4-1.9,1.2-2.5c0.8-0.6,1.8-1.1,3-1.6l1.8-0.6v-1.7
	c0-0.8-0.2-1.5-0.5-1.8c-0.3-0.4-0.8-0.6-1.3-0.6c-0.5,0-0.9,0.1-1.2,0.3c-0.3,0.2-0.5,0.5-0.5,0.9c0,0.1,0,0.2,0.1,0.4
	c0.1,0.1,0.2,0.3,0.3,0.4c0.2,0.1,0.4,0.3,0.5,0.5c0.1,0.2,0.2,0.4,0.2,0.6c0,0.4-0.1,0.7-0.4,0.9c-0.3,0.2-0.6,0.3-1,0.3
	c-0.4,0-0.8-0.1-1.1-0.4c-0.3-0.3-0.5-0.7-0.5-1.3c0-0.6,0.2-1.2,0.6-1.7c0.4-0.5,0.9-0.9,1.5-1.1c0.6-0.3,1.2-0.4,1.8-0.4
	c1.2,0,2.2,0.3,3.1,1c0.9,0.6,1.3,1.6,1.3,3v6.3c0,0.6,0.2,0.9,0.5,0.9c0.3,0,0.5-0.2,0.7-0.7c0.2-0.6,0.2-1.1,0.2-1.7H60
	c0,1.2-0.2,2.1-0.5,2.7c-0.2,0.3-0.5,0.6-0.8,0.7c-0.4,0.2-0.7,0.3-1.1,0.3c-0.7,0-1.2-0.1-1.5-0.3c-0.3-0.2-0.6-0.5-0.9-1h0
	c-0.7,0.9-1.6,1.3-2.8,1.3C51.4,41.6,50.6,41.4,50,40.9z M55,39.5v-4.9l-1.4,0.5c-0.5,0.2-0.9,0.6-1.2,1.1c-0.3,0.6-0.4,1.3-0.4,2.2
	c0,0.8,0.1,1.4,0.4,1.7c0.3,0.3,0.6,0.5,1,0.5C54.2,40.6,54.7,40.2,55,39.5L55,39.5z"/>
<path class="st0" d="M3.2,48h1.2v0.2c0,0.9-0.1,1.6-0.3,1.9c-0.2,0.3-0.5,0.5-0.9,0.5c-0.5,0-0.8-0.2-1-0.6c-0.2-0.4-0.3-1-0.3-1.9
	c0-1,0.1-1.7,0.3-2c0.2-0.3,0.5-0.5,0.9-0.5c0.3,0,0.6,0.1,0.8,0.2c0.2,0.2,0.3,0.4,0.4,0.8l-0.6,0.3c0-0.1-0.1-0.2-0.1-0.3
	c0-0.1-0.1-0.1-0.1-0.2c-0.1-0.1-0.2-0.1-0.4-0.1c-0.2,0-0.4,0.1-0.5,0.4c-0.1,0.3-0.1,0.8-0.1,1.5c0,0.7,0,1.2,0.1,1.5
	C2.8,49.9,3,50,3.2,50c0.1,0,0.2,0,0.3-0.1c0.1,0,0.1-0.1,0.2-0.2c0.1-0.2,0.1-0.5,0.1-0.9v-0.2H3.2L3.2,48z"/>
<path class="st0" d="M6.4,45.7h1.8v0.5H7.1v1.5h1v0.5h-1V50h1.1v0.5H6.4V45.7z"/>
<path class="st0" d="M10.1,45.7h0.7V50h1.1v0.5h-1.8V45.7z"/>
<path class="st0" d="M13.6,45.7h1.8v0.5h-1.1v1.5h1v0.5h-1V50h1.1v0.5h-1.8V45.7z"/>
<path class="st0" d="M17.3,45.7h0.7v4.8h-0.7V45.7z"/>
<path class="st0" d="M20.7,45.7h0.5l1.1,4.8h-0.7l-0.2-0.9h-1l-0.2,0.9h-0.6L20.7,45.7z M21.3,49.1l-0.1-0.8
	c-0.1-0.5-0.2-1.1-0.2-1.7c0,0.3-0.1,0.6-0.1,0.9c0,0.3-0.1,0.6-0.2,0.9l-0.1,0.6H21.3z"/>
<path class="st0" d="M27.4,45.7h0.5l1.1,4.8h-0.7l-0.2-0.9h-1l-0.2,0.9h-0.6L27.4,45.7z M28,49.1l-0.1-0.8c-0.1-0.5-0.2-1.1-0.2-1.7
	c0,0.3-0.1,0.6-0.1,0.9c0,0.3-0.1,0.6-0.2,0.9l-0.1,0.6H28z"/>
<path class="st0" d="M30.6,45.7h0.9c0.4,0,0.6,0.1,0.8,0.3c0.2,0.2,0.3,0.6,0.3,1c0,0.3-0.1,0.6-0.2,0.8c-0.1,0.1-0.1,0.2-0.2,0.2
	c-0.1,0.1-0.2,0.1-0.3,0.1l0.9,2.3h-0.7l-0.9-2.4v2.4h-0.7V45.7z M31.3,47.8c0.3,0,0.4-0.1,0.5-0.2c0.1-0.1,0.2-0.3,0.2-0.6
	c0-0.1,0-0.3,0-0.4c0-0.1-0.1-0.2-0.1-0.3c0-0.1-0.1-0.1-0.2-0.1c-0.1,0-0.2,0-0.3,0h-0.1L31.3,47.8z"/>
<path class="st0" d="M34.4,45.7h2.2v0.6h-0.7v4.2h-0.7v-4.2h-0.8V45.7z"/>
<path class="st0" d="M38.2,45.7H40v0.5h-1.1v1.5h1v0.5h-1V50H40v0.5h-1.8V45.7z"/>
<path class="st0" d="M43.6,45.8v0.6c-0.2-0.1-0.4-0.2-0.5-0.2c-0.1,0-0.2,0-0.2,0c-0.1,0-0.1,0.1-0.2,0.1c-0.1,0.1-0.1,0.1-0.1,0.2
	c0,0.1,0,0.2,0,0.2c0,0.2,0,0.3,0.1,0.4c0.1,0.1,0.1,0.2,0.2,0.2c0.1,0.1,0.2,0.2,0.4,0.4c0.3,0.3,0.5,0.5,0.6,0.7
	c0.1,0.2,0.2,0.5,0.1,0.7c0,0.4-0.1,0.7-0.3,0.9c-0.1,0.1-0.2,0.2-0.4,0.3c-0.1,0.1-0.3,0.1-0.5,0.1c-0.3,0-0.5-0.1-0.7-0.2v-0.6
	c0.2,0.2,0.5,0.3,0.6,0.3c0.1,0,0.2,0,0.2,0c0.1,0,0.1-0.1,0.2-0.1c0.1-0.1,0.2-0.3,0.2-0.5c0-0.2,0-0.3-0.1-0.5
	c-0.1-0.1-0.1-0.2-0.2-0.2c-0.1-0.1-0.2-0.2-0.3-0.3c-0.2-0.2-0.3-0.3-0.4-0.4c-0.1-0.1-0.2-0.2-0.2-0.3c-0.1-0.2-0.2-0.5-0.2-0.7
	c0-0.4,0.1-0.7,0.3-0.9c0.2-0.2,0.5-0.3,0.8-0.3C43.1,45.7,43.4,45.7,43.6,45.8L43.6,45.8z"/>
<path class="st0" d="M46.4,45.7H47l1.1,4.8h-0.7l-0.2-0.9h-1L46,50.5h-0.6L46.4,45.7z M47.1,49.1l-0.1-0.8c-0.1-0.5-0.2-1.1-0.2-1.7
	c0,0.3-0.1,0.6-0.1,0.9c0,0.3-0.1,0.6-0.2,0.9l-0.1,0.6H47.1z"/>
<path class="st0" d="M49.7,45.7h0.6l0.7,1.9c0.2,0.6,0.4,1.1,0.5,1.7c-0.1-0.4-0.1-0.7-0.1-1c0-0.3,0-0.6,0-0.8v-1.8H52v4.8h-0.6
	l-0.7-2.2c-0.1-0.2-0.1-0.4-0.2-0.6c-0.1-0.2-0.1-0.4-0.2-0.7c0,0,0-0.1,0-0.1s0-0.1,0-0.1c0,0.1,0,0.1,0,0.1c0,0,0,0.1,0,0.1l0,0.5
	l0,0.6c0,0,0,0.1,0,0.1c0,0.1,0,0.1,0,0.2l0,2.1h-0.7V45.7z"/>
<path class="st0" d="M54.9,45.7h0.5l1.1,4.8h-0.7l-0.2-0.9h-1l-0.2,0.9h-0.6L54.9,45.7z M55.5,49.1l-0.1-0.8
	c-0.1-0.5-0.2-1.1-0.2-1.7c0,0.3-0.1,0.6-0.1,0.9c0,0.3-0.1,0.6-0.2,0.9l-0.1,0.6H55.5z"/>
<path class="st0" d="M58.2,45.7h0.7V50h1.1v0.5h-1.8V45.7z"/>
</svg>
