<svg width="60" height="51" viewBox="0 0 60 51" fill="none" xmlns="http://www.w3.org/2000/svg">
<path d="M0 16.8673H1.73625C1.96734 16.8673 2.12443 16.8218 2.20752 16.7308C2.29061 16.6399 2.33195 16.4869 2.33154 16.272V1.38919C2.33154 1.15769 2.2902 1.0006 2.20752 0.917919C2.12484 0.83524 1.96775 0.793901 1.73625 0.793901H0V0.000181597H9.22695C10.5647 -0.00957829 11.8758 0.374267 12.9971 1.10395C14.1381 1.83979 15.0434 2.865 15.7131 4.17959C16.3828 5.49419 16.7176 6.9948 16.7176 8.68145C16.7176 10.3681 16.3828 11.8977 15.7131 13.2701C15.0434 14.6426 14.1339 15.7174 12.9847 16.4946C11.8805 17.2577 10.5692 17.6646 9.22695 17.6604H0V16.8673ZM8.80529 16.8673C9.86316 16.8673 10.7437 16.4993 11.4469 15.7635C12.1501 15.0277 12.5014 13.9568 12.501 12.5508V5.10973C12.501 3.70419 12.1496 2.6335 11.4469 1.89766C10.7441 1.16182 9.86358 0.793901 8.80529 0.793901H6.59776C6.3828 0.793901 6.22984 0.83524 6.1389 0.917919C6.04795 1.0006 6.00248 1.15769 6.00248 1.38919V16.2714C6.00248 16.4859 6.04795 16.6389 6.1389 16.7302C6.22984 16.8216 6.3828 16.8671 6.59776 16.8666L8.80529 16.8673Z" fill="black"/>
<path d="M20.3638 17.1525C19.587 16.6151 18.9669 15.8751 18.5035 14.9326C18.0401 13.99 17.8086 12.9398 17.809 11.7819C17.809 10.6244 18.0405 9.57437 18.5035 8.63183C18.9665 7.68929 19.5866 6.94932 20.3638 6.41191C21.141 5.8745 21.976 5.60579 22.869 5.60579C23.7619 5.60579 24.5969 5.8745 25.3741 6.41191C26.1517 6.94932 26.7718 7.68929 27.2344 8.63183C27.697 9.57437 27.9287 10.6244 27.9295 11.7819C27.9295 12.9394 27.6978 13.9896 27.2344 14.9326C26.771 15.8755 26.1509 16.6155 25.3741 17.1525C24.5974 17.6899 23.7623 17.9586 22.869 17.9586C21.9756 17.9586 21.1406 17.6899 20.3638 17.1525ZM24.3448 16.0487C24.6176 15.1719 24.754 13.7496 24.754 11.7819C24.754 9.81414 24.6176 8.39206 24.3448 7.51567C24.0719 6.63969 23.58 6.20149 22.869 6.20107C22.1579 6.20066 21.666 6.63886 21.3931 7.51567C21.1203 8.39248 20.9839 9.81455 20.9839 11.7819C20.9839 13.7492 21.1203 15.1715 21.3931 16.0487C21.666 16.9251 22.1579 17.3633 22.869 17.3633C23.58 17.3633 24.0719 16.9251 24.3448 16.0487V16.0487Z" fill="black"/>
<path d="M31.513 17.1277C30.7106 16.5741 30.0862 15.8259 29.6397 14.8829C29.1933 13.94 28.97 12.9065 28.97 11.7825C28.97 10.6581 29.1891 9.62457 29.6273 8.68204C30.0655 7.7395 30.6856 6.99125 31.4876 6.43731C32.285 5.88463 33.2347 5.594 34.2048 5.60577C34.9986 5.60577 35.6641 5.77112 36.2015 6.10184C36.7114 6.40448 37.1275 6.8423 37.4039 7.36683C37.6624 7.85616 37.7986 8.40083 37.8008 8.95426C37.8111 9.51979 37.6174 10.0701 37.2551 10.5045C36.8913 10.9431 36.4531 11.1622 35.9405 11.1618C35.5597 11.1618 35.2456 11.0502 34.9979 10.8269C34.7503 10.6037 34.6263 10.3019 34.6259 9.9216C34.6259 9.47513 34.8905 9.03694 35.4196 8.60701C35.8165 8.27629 36.0149 7.93731 36.0149 7.59006C36.0116 7.23468 35.8743 6.89364 35.6304 6.63512C35.3737 6.34574 34.9645 6.20105 34.4027 6.20105C33.6251 6.20105 33.0546 6.69299 32.6912 7.67687C32.3278 8.66075 32.1459 10.0291 32.1455 11.7819C32.1455 12.6587 32.1621 13.3408 32.1951 13.8282C32.2244 14.2932 32.2991 14.7543 32.4184 15.2048C32.5672 15.8162 32.8524 16.304 33.2741 16.6682C33.6815 17.0266 34.2074 17.221 34.7499 17.2139C35.5597 17.2139 36.2129 16.8583 36.7094 16.1473C37.2059 15.4363 37.5035 14.6012 37.6023 13.6421H38.2472C38.148 14.7831 37.7759 15.7877 37.1311 16.6558C36.4862 17.5239 35.5271 17.958 34.2538 17.958C33.2286 17.9584 32.315 17.6816 31.513 17.1277Z" fill="black"/>
<path d="M41.7817 17.1277C40.9793 16.5742 40.3551 15.8259 39.9091 14.883C39.463 13.94 39.2398 12.9065 39.2394 11.7825C39.2394 10.625 39.4626 9.575 39.9091 8.63246C40.3555 7.68992 40.9632 6.94974 41.7321 6.41192C42.466 5.88585 43.3467 5.60385 44.2497 5.6058C45.2584 5.6058 46.1265 5.96545 46.8541 6.68476C47.5816 7.40406 48.0612 8.35074 48.2927 9.52477C48.4084 10.0543 48.4663 10.8811 48.4663 12.0051H42.4142C42.4142 12.798 42.4308 13.4223 42.4638 13.8778C42.4957 14.3263 42.5704 14.7706 42.6871 15.2048C42.8359 15.8162 43.1211 16.304 43.5428 16.6682C43.9502 17.0266 44.4761 17.221 45.0186 17.2139C45.8293 17.2139 46.4824 16.8584 46.9781 16.1473C47.4738 15.4363 47.7714 14.6012 47.871 13.6422H48.5159C48.4167 14.7831 48.0446 15.7877 47.3998 16.6558C46.7549 17.5239 45.7958 17.958 44.5225 17.958C43.4973 17.9584 42.5837 17.6817 41.7817 17.1277ZM45.5891 11.3106C45.5891 9.57438 45.4775 8.28872 45.2542 7.45367C45.031 6.61861 44.6135 6.20108 44.0017 6.20108C43.3898 6.20108 42.9723 6.61861 42.7491 7.45367C42.5258 8.28872 42.4142 9.57438 42.4142 11.3106H45.5891Z" fill="black"/>
<path d="M3.33611 40.4679C2.28568 39.6246 1.47956 38.496 0.917756 37.0822C0.355954 35.6684 0.0748458 34.1262 0.0744324 32.4557C0.0744324 30.8021 0.388611 29.2643 1.01697 27.8422C1.64533 26.4202 2.52172 25.2875 3.64615 24.4442C4.7434 23.6096 6.08745 23.1645 7.46591 23.1792C8.17654 23.1792 8.79249 23.2825 9.31378 23.4892C9.90175 23.7321 10.4629 24.0355 10.988 24.3945C11.3679 24.6426 11.649 24.7666 11.8314 24.7666C12.0463 24.7666 12.2282 24.6095 12.377 24.2953L12.7987 23.3776H13.6172V30.521H12.8483C12.2695 28.4214 11.5296 26.805 10.6284 25.6719C9.72718 24.5388 8.67302 23.9725 7.46591 23.9729C6.45723 23.9729 5.67592 24.3408 5.12197 25.0766C4.56802 25.8125 4.29105 27.032 4.29105 28.7352V36.1763C4.29105 39.352 5.20051 40.9396 7.01945 40.9392C7.87889 40.9392 8.58166 40.5754 9.12776 39.8478C9.67385 39.1202 9.94669 38.2685 9.94628 37.2924V33.8943C9.94628 33.6628 9.90494 33.5057 9.82226 33.4231C9.73958 33.3404 9.58249 33.299 9.35099 33.299H7.16827V32.5053H15.4031V33.299H14.2125C13.9973 33.299 13.8448 33.3406 13.7536 33.4231C13.6625 33.5055 13.6172 33.663 13.6172 33.8943V41.6089H12.8235L12.2282 39.3517C12.1826 39.194 12.1068 39.0466 12.005 38.9177C11.962 38.8595 11.9059 38.8124 11.8413 38.78C11.7766 38.7477 11.7052 38.7311 11.6329 38.7317C11.3353 38.7317 11.079 38.9053 10.864 39.2525C10.4249 39.9082 9.88006 40.4865 9.25177 40.964C8.61699 41.4671 7.82942 41.7384 7.01945 41.7329C5.61391 41.7329 4.38613 41.3112 3.33611 40.4679Z" fill="black"/>
<path d="M18.5903 40.7532C17.7879 40.1997 17.1637 39.4514 16.7176 38.5085C16.2716 37.5655 16.0484 36.532 16.0479 35.408C16.0479 34.2505 16.2712 33.2005 16.7176 32.2579C17.1641 31.3154 17.7718 30.5754 18.5407 30.038C19.2746 29.5119 20.1553 29.2299 21.0583 29.2319C22.0665 29.2319 22.9347 29.5916 23.6627 30.3109C24.3906 31.0302 24.8702 31.9768 25.1013 33.1509C25.2166 33.6804 25.2745 34.5072 25.2749 35.6312H19.2228C19.2228 36.4241 19.2393 37.0483 19.2724 37.5039C19.3043 37.9524 19.379 38.3967 19.4956 38.8309C19.6445 39.4423 19.9297 39.9301 20.3514 40.2943C20.7588 40.6527 21.2846 40.8471 21.8272 40.84C22.637 40.84 23.2902 40.4845 23.7867 39.7734C24.2832 39.0624 24.5808 38.2273 24.6796 37.2683H25.3245C25.2253 38.4092 24.8532 39.4138 24.2083 40.2819C23.5634 41.15 22.6044 41.5841 21.3311 41.5841C20.3059 41.5841 19.3923 41.3071 18.5903 40.7532ZM22.3977 34.9361C22.3977 33.1999 22.2861 31.9142 22.0628 31.0792C21.8396 30.2441 21.4221 29.8266 20.8102 29.8266C20.198 29.8266 19.7805 30.2441 19.5577 31.0792C19.3348 31.9142 19.2232 33.1999 19.2228 34.9361H22.3977Z" fill="black"/>
<path d="M25.8702 40.6912H27.2592C27.408 40.6912 27.5109 40.662 27.5692 40.6043C27.6275 40.5467 27.656 40.4431 27.656 40.2943V24.6178C27.656 24.469 27.6269 24.366 27.5692 24.3077C27.5116 24.2495 27.408 24.2209 27.2592 24.2209H25.8702V23.6256H30.5333V40.2943C30.5333 40.4431 30.5618 40.5461 30.6201 40.6043C30.6784 40.6626 30.7813 40.6912 30.9301 40.6912H32.3191V41.2864H25.8702V40.6912Z" fill="black"/>
<path d="M35.2584 40.7532C34.456 40.1997 33.8317 39.4514 33.3857 38.5085C32.9396 37.5655 32.7164 36.532 32.716 35.408C32.716 34.2505 32.9392 33.2005 33.3857 32.2579C33.8322 31.3154 34.4398 30.5754 35.2087 30.038C35.9426 29.5119 36.8234 29.2299 37.7263 29.2319C38.7346 29.2319 39.6027 29.5916 40.3307 30.3109C41.0587 31.0302 41.5382 31.9768 41.7693 33.1509C41.8846 33.6804 41.9425 34.5072 41.9429 35.6312H35.8908C35.8908 36.4241 35.9074 37.0483 35.9405 37.5039C35.9723 37.9524 36.0471 38.3967 36.1637 38.8309C36.3125 39.4423 36.5978 39.9301 37.0194 40.2943C37.4268 40.6527 37.9527 40.8471 38.4952 40.84C39.3051 40.84 39.9582 40.4845 40.4547 39.7734C40.9512 39.0624 41.2488 38.2273 41.3476 37.2683H41.9925C41.8933 38.4092 41.5213 39.4138 40.8764 40.2819C40.2315 41.15 39.2724 41.5841 37.9992 41.5841C36.9735 41.5841 36.0599 41.3071 35.2584 40.7532ZM39.0657 34.9361C39.0657 33.1999 38.9541 31.9142 38.7309 31.0792C38.5076 30.2441 38.0901 29.8266 37.4783 29.8266C36.866 29.8266 36.4485 30.2441 36.2257 31.0792C36.0029 31.9142 35.8913 33.1999 35.8908 34.9361H39.0657Z" fill="black"/>
<path d="M42.8849 40.6911H43.8274C43.9762 40.6911 44.0796 40.6622 44.1374 40.6043C44.1951 40.546 44.2243 40.4431 44.2243 40.2943V30.521C44.2243 30.3722 44.1951 30.2693 44.1374 30.211C44.0798 30.1527 43.9762 30.1242 43.8274 30.1242H42.8849V29.5289H47.1015V40.2943C47.1015 40.4431 47.1306 40.546 47.1883 40.6043C47.246 40.6626 47.3495 40.6911 47.4983 40.6911H48.4415V41.2864H42.8855L42.8849 40.6911ZM44.2615 26.4656C44.0882 26.2966 43.9515 26.0938 43.8598 25.8699C43.7681 25.6459 43.7233 25.4054 43.7282 25.1635C43.7282 24.6343 43.9059 24.1961 44.2615 23.8489C44.4324 23.679 44.6358 23.5453 44.8595 23.4558C45.0832 23.3663 45.3227 23.3228 45.5636 23.328C46.0924 23.328 46.5306 23.5016 46.8782 23.8489C47.2259 24.1961 47.3995 24.6343 47.3991 25.1635C47.4043 25.4044 47.3608 25.6439 47.2713 25.8676C47.1818 26.0913 47.0481 26.2947 46.8782 26.4656C46.531 26.8216 46.0928 26.9993 45.5636 26.9989C45.3217 27.0038 45.0812 26.959 44.8573 26.8673C44.6333 26.7756 44.4305 26.6389 44.2615 26.4656V26.4656Z" fill="black"/>
<path d="M49.9917 40.9144C49.3551 40.4679 49.0368 39.7156 49.0368 38.6573C49.0368 37.5824 49.4295 36.735 50.2149 36.1149C51.0004 35.4948 51.9967 34.9781 53.2038 34.5647L55.0393 33.9198V32.2331C55.0393 31.3898 54.8656 30.778 54.5184 30.3977C54.1711 30.0173 53.7247 29.8272 53.179 29.8272C52.7156 29.8272 52.3146 29.9305 51.976 30.1372C51.6374 30.3439 51.4679 30.6292 51.4675 30.9929C51.4731 31.1173 51.5025 31.2394 51.5543 31.3526C51.6188 31.5012 51.7269 31.6266 51.8644 31.7123C52.1124 31.8611 52.2902 32.0182 52.3977 32.1835C52.5051 32.3489 52.5589 32.5638 52.5589 32.8284C52.5589 33.2253 52.4142 33.5353 52.1248 33.7585C51.8538 33.9754 51.517 34.0934 51.1699 34.0934C50.759 34.1007 50.362 33.9446 50.0661 33.6593C49.7598 33.37 49.6068 32.9524 49.6073 32.4067C49.5998 31.7998 49.8012 31.2087 50.1777 30.7325C50.5625 30.2418 51.0662 29.8576 51.6412 29.6163C52.2119 29.3653 52.8283 29.2344 53.4518 29.2319C54.6424 29.2319 55.6841 29.5502 56.5771 30.1868C57.47 30.8235 57.9165 31.8363 57.9165 33.2253V39.5012C57.9165 40.0965 58.0818 40.3941 58.4125 40.3941C58.7102 40.3941 58.9334 40.1461 59.0822 39.65C59.2392 39.0934 59.3144 38.5169 59.3055 37.9386H60C60 39.1453 59.8181 40.0299 59.4543 40.5926C59.2662 40.8962 59.0008 41.1444 58.6854 41.3119C58.3345 41.4985 57.9418 41.5924 57.5444 41.5847C56.866 41.5847 56.3534 41.4814 56.0066 41.2747C55.6598 41.068 55.3704 40.7249 55.1385 40.2453H55.0889C54.4274 41.1382 53.5014 41.5847 52.3109 41.5847C51.401 41.5843 50.6279 41.3609 49.9917 40.9144ZM55.0393 39.5006V34.5889L53.6503 35.0849C53.1046 35.2834 52.7036 35.6595 52.4473 36.2135C52.191 36.7674 52.0628 37.5076 52.0628 38.434C52.0628 39.2439 52.2116 39.8061 52.5093 40.1207C52.8069 40.4353 53.1459 40.5924 53.5262 40.5919C54.1707 40.5919 54.6748 40.2282 55.0386 39.5006H55.0393Z" fill="black"/>
<path d="M3.21765 47.9954H4.42744V48.1814C4.42744 49.1173 4.34311 49.7488 4.17445 50.0758C4.00909 50.4119 3.6976 50.5799 3.23997 50.5799C2.7687 50.5799 2.43282 50.3939 2.23232 50.0218C2.03183 49.6498 1.93261 49.0225 1.93468 48.1399C1.93468 47.1324 2.0434 46.4615 2.26085 46.127C2.46754 45.8141 2.78214 45.6576 3.20462 45.6576C3.52914 45.6576 3.78193 45.7333 3.963 45.8846C4.14406 46.0359 4.2871 46.2879 4.3921 46.6405L3.77201 46.8922C3.74938 46.7837 3.71828 46.6772 3.67899 46.5735C3.65273 46.5011 3.61482 46.4334 3.56676 46.3732C3.48615 46.2752 3.36461 46.2269 3.20214 46.2269C2.98015 46.2269 2.82864 46.3596 2.74762 46.625C2.66701 46.9028 2.62567 47.4015 2.6236 48.1213C2.6236 48.8492 2.66494 49.3418 2.74762 49.5989C2.8303 49.8561 2.98697 49.9846 3.21765 49.9846C3.31111 49.9907 3.40414 49.9676 3.4839 49.9185C3.56366 49.8694 3.62619 49.7967 3.66287 49.7105C3.75051 49.5158 3.79412 49.2027 3.79371 48.7711V48.5442H3.21455L3.21765 47.9954Z" fill="black"/>
<path d="M6.39934 45.7189H8.16846V46.2664H7.06469V47.7875H8.04382V48.335H7.06594V49.9745H8.1697V50.5221H6.39934V45.7189Z" fill="black"/>
<path d="M10.092 45.7189H10.7573V49.9745H11.8456V50.5221H10.092V45.7189Z" fill="black"/>
<path d="M13.5725 45.7189H15.3417V46.2664H14.2379V47.7875H15.217V48.335H14.2379V49.9745H15.3417V50.5221H13.5725V45.7189Z" fill="black"/>
<path d="M17.264 45.7189H17.9293V50.5221H17.264V45.7189Z" fill="black"/>
<path d="M20.7055 45.7189H21.2239L22.2836 50.5221H21.6238L21.4378 49.5857H20.4593L20.2733 50.5221H19.6302L20.7055 45.7189ZM21.3435 49.0847L21.1966 48.3195C21.0986 47.7995 21.0186 47.2437 20.9566 46.6521C20.9268 46.9415 20.8884 47.2333 20.8413 47.5277C20.7941 47.822 20.7387 48.1358 20.6751 48.469L20.5511 49.0847H21.3435Z" fill="black"/>
<path d="M27.3584 45.7189H27.8768L28.9359 50.5221H28.2743L28.0883 49.5857H27.1104L26.9243 50.5221H26.2807L27.3584 45.7189ZM27.9952 49.0847L27.8483 48.3195C27.7495 47.7995 27.6695 47.2437 27.6083 46.6521C27.5777 46.9415 27.5393 47.2333 27.493 47.5277C27.4467 47.822 27.3911 48.1358 27.3262 48.469L27.2021 49.0847H27.9952Z" fill="black"/>
<path d="M30.635 45.7189H31.513C31.8752 45.7189 32.1455 45.8032 32.3191 45.9712C32.5428 46.1887 32.6548 46.5215 32.6552 46.9696C32.6552 47.3135 32.5961 47.5899 32.4779 47.7986C32.4265 47.8961 32.3545 47.9812 32.2669 48.048C32.1793 48.1149 32.0782 48.1618 31.9707 48.1856L32.8791 50.5221H32.2057L31.3003 48.1701V50.5221H30.635V45.7189ZM31.3003 47.847C31.5583 47.847 31.7406 47.7889 31.8473 47.6728C31.9539 47.5566 32.0072 47.3604 32.0072 47.0843C32.0091 46.956 31.9979 46.8278 31.9738 46.7017C31.9567 46.6094 31.9209 46.5216 31.8683 46.4437C31.8216 46.3782 31.757 46.3274 31.6823 46.2974C31.5961 46.2645 31.5042 46.2487 31.412 46.2509H31.2997L31.3003 47.847Z" fill="black"/>
<path d="M34.3772 45.7189H36.5438V46.2838H35.7997V50.5208H35.1455V46.2838H34.3772V45.7189Z" fill="black"/>
<path d="M38.2224 45.7189H39.9921V46.2664H38.8884V47.7875H39.8675V48.335H38.8884V49.9745H39.9921V50.5221H38.2224V45.7189Z" fill="black"/>
<path d="M43.562 45.8187V46.45C43.3594 46.3094 43.1771 46.2389 43.0151 46.2385C42.9348 46.2359 42.8549 46.2507 42.7808 46.2819C42.7067 46.313 42.6403 46.3598 42.586 46.419C42.5293 46.4803 42.4853 46.5522 42.4568 46.6307C42.4283 46.7092 42.4157 46.7926 42.4198 46.876C42.4151 47.0292 42.4563 47.1804 42.5382 47.31C42.5979 47.398 42.6647 47.4809 42.7379 47.5581C42.8309 47.6598 42.951 47.7821 43.0982 47.9252C43.3689 48.1922 43.5535 48.4235 43.6519 48.619C43.756 48.8349 43.8064 49.0728 43.7989 49.3123C43.7989 49.6844 43.6912 49.9903 43.4758 50.23C43.3712 50.3451 43.2429 50.4361 43.0998 50.4968C42.9567 50.5574 42.8021 50.5864 42.6467 50.5816C42.3862 50.5889 42.1306 50.5091 41.9206 50.3547V49.7129C42.1575 49.8811 42.3729 49.9653 42.5667 49.9653C42.6464 49.9694 42.7259 49.9557 42.7996 49.9252C42.8733 49.8948 42.9393 49.8483 42.9927 49.7892C43.101 49.6544 43.1556 49.4843 43.1459 49.3117C43.1485 49.1475 43.1077 48.9856 43.0275 48.8423C42.9768 48.7619 42.9203 48.6854 42.8582 48.6135C42.7856 48.5273 42.6951 48.4318 42.586 48.3257C42.4173 48.1637 42.2776 48.0207 42.1668 47.8966C42.0732 47.7964 41.9901 47.6869 41.9187 47.5699C41.8091 47.3566 41.7562 47.1187 41.765 46.8791C41.765 46.5041 41.8652 46.2067 42.0657 45.9868C42.2662 45.7668 42.5382 45.6558 42.8817 45.6538C43.1185 45.653 43.3519 45.7096 43.562 45.8187V45.8187Z" fill="black"/>
<path d="M46.4472 45.7189H46.9656L48.0248 50.5221H47.3656L47.1796 49.5857H46.2011L46.015 50.5221H45.372L46.4472 45.7189ZM47.0841 49.0847L46.9365 48.3195C46.8385 47.7995 46.7585 47.2437 46.6965 46.6521C46.6668 46.9415 46.6285 47.2333 46.5818 47.5277C46.5351 47.822 46.4795 48.1358 46.415 48.469L46.291 49.0847H47.0841Z" fill="black"/>
<path d="M49.7257 45.7189H50.3458L51.008 47.6349C51.2079 48.2044 51.3776 48.7839 51.5165 49.3712C51.4632 48.9991 51.4237 48.663 51.3981 48.3629C51.3724 48.0628 51.3596 47.7798 51.3596 47.514V45.722H52.0287V50.5252H51.4061L50.662 48.3629C50.5938 48.162 50.5293 47.9553 50.4685 47.7428C50.4078 47.5303 50.3522 47.3077 50.3017 47.075C50.2974 47.0465 50.2906 47.013 50.2813 46.9696C50.272 46.9262 50.2602 46.8803 50.2472 46.8263C50.254 46.8803 50.2589 46.9262 50.2633 46.9646C50.2676 47.0031 50.2707 47.0359 50.2732 47.0626L50.3079 47.5512L50.3433 48.1453C50.3433 48.1788 50.347 48.2191 50.3482 48.2693C50.3495 48.3195 50.3482 48.371 50.3482 48.4311L50.383 50.5246H49.7257V45.7189Z" fill="black"/>
<path d="M54.8991 45.7189H55.4175L56.4766 50.5221H55.8206L55.6345 49.5857H54.6529L54.4669 50.5221H53.8239L54.8991 45.7189ZM55.5359 49.0847L55.389 48.3195C55.2906 47.7995 55.2106 47.2437 55.149 46.6521C55.1184 46.9415 55.08 47.2333 55.0337 47.5277C54.9874 47.822 54.9318 48.1358 54.8669 48.469L54.7428 49.0847H55.5359Z" fill="black"/>
<path d="M58.1769 45.7189H58.8429V49.9745H59.9305V50.5221H58.1769V45.7189Z" fill="black"/>
</svg>
